<svg version="1.1" xmlns="http://www.w3.org/2000/svg" xmlns:xlink="http://www.w3.org/1999/xlink" x="0px" y="0px" viewBox="0 0 16 16" style="enable-background:new 0 0 16 16;" xml:space="preserve">
    <path d="M9.4,0C5.7,0,2.7,3,2.7,6.6c0,1.5,0.5,2.9,1.4,4l-3.8,3.8c-0.3,0.3-0.3,0.9,0,1.2c0.3,0.3,0.9,0.4,1.2,0
      l3.8-3.8c1.1,0.9,2.5,1.4,4,1.4c3.7,0,6.6-3,6.7-6.6C16,3,13,0,9.4,0z M9.3,11.6c-2.7,0-4.9-2.2-4.9-4.9c0-2.7,2.2-4.9,4.9-4.9
      c2.7,0,4.9,2.2,4.9,4.9C14.3,9.4,12.1,11.6,9.3,11.6z"></path>
    </svg>