<?xml version="1.0" encoding="UTF-8"?>
<svg width="1920" height="1080" version="1.1" viewBox="0 0 507.99998 285.75001" xmlns="http://www.w3.org/2000/svg" xmlns:xlink="http://www.w3.org/1999/xlink">
 <defs>
  <linearGradient id="ap" x1="259.28" x2="194.77" y1="414.11" y2="414.09" gradientUnits="userSpaceOnUse">
   <stop offset="0"/>
   <stop stop-color="#3a3e3d" offset=".081282"/>
   <stop stop-color="#505348" offset=".52363"/>
   <stop stop-color="#35393a" offset="1"/>
  </linearGradient>
  <linearGradient id="at" x1="260.54" x2="261.3" y1="38.61" y2="36.311" gradientUnits="userSpaceOnUse" xlink:href="#af"/>
  <linearGradient id="af">
   <stop stop-color="#787a7a" offset="0"/>
   <stop stop-color="#0f0f0f" offset="1"/>
  </linearGradient>
  <linearGradient id="as" x1="259.28" x2="194.77" y1="414.11" y2="414.09" gradientUnits="userSpaceOnUse">
   <stop offset="0"/>
   <stop stop-color="#3a3e3d" offset=".17831"/>
   <stop stop-color="#505348" offset=".52363"/>
   <stop stop-color="#35393a" offset="1"/>
  </linearGradient>
  <linearGradient id="au" x1="260.54" x2="261.23" y1="38.61" y2="36.659" gradientUnits="userSpaceOnUse" xlink:href="#af"/>
  <linearGradient id="ar" x1="313.24" x2="314.92" y1="56.507" y2="50.623" gradientTransform="matrix(1.0022 0 0 1.0022 3.9796 93.23)" gradientUnits="userSpaceOnUse">
   <stop stop-color="#676b6c" offset="0"/>
   <stop stop-color="#030207" offset="1"/>
  </linearGradient>
  <linearGradient id="ak" x1="198.37" x2="197.94" y1="435.01" y2="440.9" gradientTransform="matrix(1.0022 0 0 1.0022 3.9796 -285.41)" gradientUnits="userSpaceOnUse">
   <stop stop-color="#292f2d" offset="0"/>
   <stop stop-color="#3f4241" offset="1"/>
  </linearGradient>
  <linearGradient id="ag" x1="63.99" x2="74.245" y1="343.3" y2="333.18" gradientUnits="userSpaceOnUse">
   <stop stop-color="#eee" offset="0"/>
   <stop stop-color="#fff" offset=".37232"/>
   <stop stop-color="#bdbdbd" offset="1"/>
  </linearGradient>
  <linearGradient id="az" x1="32.392" x2="27.866" y1="55.196" y2="61.308" gradientUnits="userSpaceOnUse">
   <stop stop-color="#bdbdbd" offset="0"/>
   <stop stop-color="#fff" offset="1"/>
  </linearGradient>
  <linearGradient id="av" x1="178.71" x2="178.58" y1="428.05" y2="416.65" gradientTransform="matrix(1.0022 0 0 1.0022 3.9796 -285.41)" gradientUnits="userSpaceOnUse">
   <stop stop-color="#c3c5bd" offset="0"/>
   <stop offset=".79628"/>
   <stop stop-color="#212121" offset="1"/>
  </linearGradient>
  <linearGradient id="an" x1="75.433" x2="73.488" y1="451.79" y2="451.82" gradientTransform="matrix(1.0022 0 0 1.0022 3.9796 -285.41)" gradientUnits="userSpaceOnUse">
   <stop stop-color="#dbd69d" offset="0"/>
   <stop stop-color="#a0a07e" offset="1"/>
  </linearGradient>
  <linearGradient id="aj" x1="69.562" x2="71.254" y1="456.21" y2="456.21" gradientTransform="matrix(1.0022 0 0 1.0022 3.9796 -285.41)" gradientUnits="userSpaceOnUse" xlink:href="#ae"/>
  <linearGradient id="ae">
   <stop stop-color="#071018" offset="0"/>
   <stop stop-color="#48575a" offset=".41708"/>
   <stop stop-color="#455457" offset=".53664"/>
   <stop offset="1"/>
  </linearGradient>
  <linearGradient id="am" x1="77.507" x2="79.2" y1="456.21" y2="456.21" gradientTransform="matrix(1.0022 0 0 1.0022 3.9796 -285.41)" gradientUnits="userSpaceOnUse" xlink:href="#ae"/>
  <linearGradient id="aq" x1="29.267" x2="50.619" y1="480.55" y2="465.7" gradientTransform="matrix(1.0022 0 0 1.0022 3.9796 -285.41)" gradientUnits="userSpaceOnUse">
   <stop stop-color="#c3bbad" offset="0"/>
   <stop stop-color="#d9dadb" offset="1"/>
  </linearGradient>
  <linearGradient id="ai" x1="117.93" x2="117.93" y1="398.64" y2="413.08" gradientTransform="matrix(1.0022 0 0 1.0022 3.9796 -285.41)" gradientUnits="userSpaceOnUse">
   <stop stop-color="#212121" offset="0"/>
   <stop stop-color="#2c312f" offset=".20421"/>
   <stop stop-color="#3f4241" offset="1"/>
  </linearGradient>
  <linearGradient id="aw" x1="447.47" x2="161.93" y1="468.19" y2="484.82" gradientTransform="matrix(1.0022 0 0 1.0022 3.9796 -285.41)" gradientUnits="userSpaceOnUse">
   <stop stop-color="#77777f" offset="0"/>
   <stop stop-color="#c3bbad" offset="1"/>
  </linearGradient>
  <linearGradient id="al" x1="233.98" x2="231.18" y1="93.051" y2="108.16" gradientTransform="matrix(1.0022 0 0 1.0022 3.9796 93.23)" gradientUnits="userSpaceOnUse">
   <stop stop-color="#1d1f23" offset="0"/>
   <stop stop-color="#303535" offset="1"/>
  </linearGradient>
  <linearGradient id="k" x1="114.02" x2="114.02" y1="480.01" y2="475.32" gradientUnits="userSpaceOnUse">
   <stop stop-color="#82775f" offset="0"/>
   <stop stop-color="#3a2e25" offset="1"/>
  </linearGradient>
  <radialGradient id="ab" cx="113.6" cy="482.11" r="1.6891" gradientTransform="matrix(1 0 0 .73659 0 126.29)" gradientUnits="userSpaceOnUse">
   <stop stop-color="#e7d1ad" offset="0"/>
   <stop stop-color="#82775f" offset="1"/>
  </radialGradient>
  <radialGradient id="ac" cx="113.62" cy="470.33" r=".57274" gradientTransform="matrix(2.4392 0 0 .46822 -163.52 250.34)" gradientUnits="userSpaceOnUse">
   <stop stop-color="#ece4db" offset="0"/>
   <stop stop-color="#c3bbad" offset="1"/>
  </radialGradient>
  <radialGradient id="ad" cx="113.62" cy="470.33" r=".57274" gradientTransform="matrix(2.4392 0 0 .46822 -163.52 250.34)" gradientUnits="userSpaceOnUse">
   <stop stop-color="#ece4db" offset="0"/>
   <stop stop-color="#b0a593" offset="1"/>
  </radialGradient>
  <linearGradient id="ah" x1="30.567" x2="363.88" y1="493.19" y2="493.19" gradientTransform="matrix(1.0022 0 0 1.0022 3.9796 -285.41)" gradientUnits="userSpaceOnUse">
   <stop stop-color="#c02f2d" offset="0"/>
   <stop stop-color="#f5cfcf" offset=".53815"/>
   <stop stop-color="#f2b7b7" offset=".56959"/>
   <stop stop-color="#914d4e" offset="1"/>
  </linearGradient>
  <linearGradient id="ao" x1="77.825" x2="68.507" y1="452.68" y2="453.83" gradientTransform="matrix(1.0022 0 0 1.0022 3.9796 -285.41)" gradientUnits="userSpaceOnUse">
   <stop stop-color="#f0f1e9" offset="0"/>
   <stop stop-color="#fcfdf1" offset="1"/>
  </linearGradient>
  <radialGradient id="ay" cx="429.61" cy="777.45" r="418.03" gradientTransform="matrix(.60326 0 0 .02398 -5.1684 225.44)" gradientUnits="userSpaceOnUse">
   <stop stop-color="#010c1c" offset="0"/>
   <stop stop-color="#032a62" offset="1"/>
  </radialGradient>
  <linearGradient id="ax" x1="88.194" x2="88.194" y1="172.08" y2="264.92" gradientTransform="matrix(3.2041 0 0 2.9227 42.06 -520.58)" gradientUnits="userSpaceOnUse">
   <stop stop-color="#032a62" offset="0"/>
   <stop stop-color="#032a62" offset="1"/>
  </linearGradient>
 </defs>
 <g transform="translate(0 -11.25)">
  <path d="m-7.4669e-7 11.25h508v285.75h-508z" fill="url(#ax)" fill-rule="evenodd" style="paint-order:normal"/>
  <path d="m508 244.08a254 10.54 0 0 1 -254 10.54 254 10.54 0 0 1 -254 -10.54 254 10.54 0 0 1 254 -10.54 254 10.54 0 0 1 254 10.54z" fill="url(#ay)" fill-rule="evenodd" style="paint-order:normal"/>
  <path d="m116.73 145.21c9.3504 1.0676 19.948 3.1085 26.384 5.5814l18.21-4.3136-5.0663-3.0398-37.491-1.3752z" fill="#b2b4b7"/>
  <path d="m118.77 142.06-2.0356 3.1474c5.472 0.62475 11.504 1.5886 16.746 2.7716 6.7458-0.40579 14.645-0.32865 21.841 0.1658l6.0076-1.671-5.0676-3.0398z" fill="#7a7b82"/>
  <g transform="matrix(1.0022 0 0 1.0022 3.9796 -285.41)">
   <path d="m182.6 412.37c17.592-2.0545 37.87-3.2134 66.138-1.7091l1.9259-0.31559c0.8212 0.23259 14.339 5.2304 18.547 7.4528l1.1814 2.5247-74.972-0.0627-14.498-5.4366z" fill="url(#ap)"/>
   <path transform="translate(0 377.83)" d="m250.66 32.521-1.9277 0.31641c-0.21341-0.01136-0.41642-0.0202-0.62891-0.03125l-0.01 0.01953 17.514 8.9199 3.752-1.4473-0.15235-0.32422c-4.2079-2.2225-17.726-7.2205-18.547-7.4531z" fill="url(#at)"/>
   <path d="m182.6 412.37c17.592-2.0545 37.87-3.2134 66.138-1.7091l1.9259-0.31559c0.8212 0.23259 14.339 5.2304 18.547 7.4528l1.1814 2.5247-74.972-0.0627-14.498-5.4366z" fill="url(#as)"/>
   <path transform="translate(0 377.83)" d="m250.66 32.521-1.9277 0.31641c-0.21341-0.01136-0.41642-0.0202-0.62891-0.03125l-0.01 0.01953 17.514 8.9199 3.752-1.4473-0.15235-0.32422c-4.2079-2.2225-17.726-7.2205-18.547-7.4531z" fill="url(#au)"/>
  </g>
  <path d="m189.26 127.6c-0.76258 0.0845-1.5358 0.16463-2.2881 0.25249l-1.5326 2.2412 0.10766 0.31317 14.273 5.3514 73.915 0.0626 0.92973-0.61852-0.74183-1.5854-0.15268-0.32492c-0.29408-0.15532-0.72481-0.3505-1.102-0.53044-1.213 0.47453-3.3075 0.70242-5.3749 0.57155-22.829-2.3173-44.902-2.5297-65.986-1.5835 0 0-7.8401-2.5539-12.047-4.1496z" fill="#151616"/>
  <path d="m241.42 135.62c-11.183 0.0506-21.907 0.82481-32.108 2.1433 3.4271 1.9517 13.913 8.3852 13.913 8.3852 14.863 1.4444 46.959 4.454 71.535 9.3835l15.422 1.515c19.476-1.596 32.505-2.8982 32.505-2.8982l4.9264-1.8986-36.219-10.539-15.967-0.69517c-18.892-3.8799-36.978-5.4734-54.007-5.3964z" fill="url(#ar)"/>
  <path d="m241.42 135.62c-11.183 0.0506-21.907 0.82481-32.108 2.1433 3.4271 1.9517 13.913 8.3852 13.913 8.3852 14.863 1.4444 46.959 4.454 71.535 9.3835l15.422 1.515c10.1-0.82766 18.175-1.5497 23.889-2.0787-12.999-3.9266-26.55-7.5851-40.674-11.387-0.94832-0.76258-1.8886-1.6043 0.90696-2.7805-18.484-3.7135-36.194-5.2565-52.883-5.1811z" fill="#4d5152"/>
  <path d="m226.14 136.15c-3.635 0.23157-7.2134 0.53501-10.734 0.90625l0.60091 3.8149c27.054-3.4418 58.602-9e-3 79.08 3.2472 6.4877-0.21382 12.67-0.93599 17.968-1.9221l-1.6618-0.48347-15.966-0.69485c-0.37655-0.0773-0.74761-0.13979-1.1235-0.21531-0.0237-5e-3 -0.0468-9e-3 -0.0705-0.0137-2.2862-0.45865-4.5614-0.88521-6.8233-1.2781-6.7676-1.1757-13.425-2.0624-19.959-2.6913l-4.8562 0.50695-35.659-1.0804z" fill="#191a1a"/>
  <path d="m178.1 143.82c-22.592 5.8083-41.357 13.869-55.17 21.431 25.397-2.3626 83.05-0.1039 90.411 0.47368l5.2222 4.1339c24.739-6.3784 48.887-7.2382 72.05-10.683 0.20044-0.0298 0.42673-0.0566 0.63026-0.0861l-0.39146-3.2844c-35.803-4.6225-71.761-9.7098-107.95-11.769z" fill="url(#ak)" stroke="#000" stroke-width=".50108"/>
  <path d="m170.21 149.8c34.517 0.0454 75.542 4.2011 116.21 8.1293 0 0 5.4195-4.1689 4.7942-4.1689-0.62534 0-109.33-11.986-109.75-11.881-0.41689 0.10422-11.256 7.9209-11.256 7.9209z" fill="#191a1a"/>
  <path d="m42.842 170.53c0.33994-0.89938 1.0359-1.2416 1.7003-1.6332l3.0542 0.0845c-0.53712 0.4945-0.94592 1.1563-0.82383 1.8719z" fill="#eff0ea"/>
  <g transform="matrix(.86409 0 0 .86409 -27.907 -131.59)">
   <path d="m57.594 337.16c4.0084 2.8138 7.7114 6.4876 10.791 14.126 1.0658-3.3806 2.454-6.7568 6.0625-8.5482 3.0059-2.0304 1.402-2.7982 0.90938-3.88-1.4274-3.0316 3.573-2.6198 6.2444-3.4556-3.4599-3.3522-7.064-8.7662-8.245-16.248 0 0-1.7344 2.6414-2.9706 3.7588-0.62788 0.5675-1.487 1.2939-2.3038 1.5156-2.6092 0.70824-4.081 1.9023-1.3944 4.2438-1.5961 3.1808-3.4795 5.1387-5.6381 6.4263-1.1519 0.68709-3.4556 2.0613-3.4556 2.0613z" fill="url(#ag)"/>
   <path transform="rotate(-27.007)" d="m-78.732 316.39c0.32834 0 0.59267 0.26433 0.59267 0.59267v53.827c0 0.32834-0.26433 0.59267-0.59267 0.59267s-0.59267-0.26433-0.59267-0.59267v-53.827c0-0.32834 0.26433-0.59267 0.59267-0.59267z" fill="#212121" fill-rule="evenodd" style="paint-order:normal"/>
   <path transform="matrix(1.1598 0 0 1.1598 36.902 260.18)" d="m31.432 50.852s-1.4946 2.2787-2.5605 3.2422c-0.54138 0.48931-1.2821 1.1155-1.9863 1.3066-2.1846 0.59297-3.417 1.5889-1.3672 3.4941l0.46289 0.31836 7.166 8.5977c-1.1821-2.5801 3.1003-2.2314 5.3945-2.9492-2.9832-2.8904-6.091-7.5591-7.1094-14.01z" fill="url(#az)"/>
  </g>
  <path d="m50.215 169.01 0.05631-1.4079c0.18624-0.20923 0.31074-0.44221 0.8729-0.50685l3.8014 0.0563c1.3116 0.40085 1.1059 1.2758 1.2953 2.0274 5.0084 0.67981 9.7685 1.0091 15.994 3.4071l0.45053 1.4361-22.676 6.856 1.703-2.0436 0.19463-2.8708-5.616-5.3119 4.5455 0.10558c0.28262-5e-3 0.58992-0.0486 1.0218-0.29195l1.3624-1.1678z" fill="#f0f1e9"/>
  <path d="m42.833 170.57 5.4925 0.13035c2.8906 2.0013 6.2865 3.7398 9.6229 5.5182l-5.6767 0.32439c-4.0857-2.3726-6.9074-4.1925-9.4386-5.9729z" fill="#4a4d48"/>
  <path d="m173.89 165.94c-21.658 0.0169-41.695 0.28756-54.627 1.2351-9.1185 5.245-15.74 10.12-19.466 13.654h88.29c6.5867-3.187 13.145-5.7688 19.665-7.894l-7.7706-6.9251c-8.719-0.0454-17.531-0.0772-26.091-0.0705z" fill="#32373a" stroke="#33691e" stroke-width="1.0022px"/>
  <path d="m224.31 146.54 1.041-1.8759-9.7962-7.2448h-73.69l3.6739 3.6927 17.871 3.4578c-23.032 5.1291-39.389 11.81-55.267 20.611h23.831c25.215-13.666 59.925-24.478 92.336-18.641z" fill="#fcfdf1"/>
  <path d="m153.13 141.45 73.937 4.872-3.1541-1.8485-7.3721-5.5368-73.428-0.95946-0.40358 2.5224z" fill="url(#av)"/>
  <path d="m76.741 166.49h8.0118c0.10879 0 0.19638 0.0876 0.19638 0.19638v6.9021c0 0.10879-0.08758 0.19637-0.19638 0.19637h-8.0118c-0.10879 0-0.19638-0.0876-0.19638-0.19637v-6.9021c0-0.10879 0.08759-0.19638 0.19638-0.19638z" fill="url(#an)" fill-rule="evenodd" style="paint-order:normal"/>
  <path d="m75.212 173.38c3.2047-3.1251 6.8249-4.0666 10.7-5.6448l-0.92112 2.2824c1.7314 1.3408 4.2685 1.8173 6.9458 0.38394v-1.9546s2.7225-0.17451 2.7225 0c0 0.17452-0.52356 4.7469-0.52356 4.7469l-20.733 2.3386z" fill="#6c6d72"/>
  <path d="m73.554 169.8h2.0361v3.8976h-2.0361z" fill="url(#aj)" fill-rule="evenodd" style="paint-order:normal"/>
  <path d="m81.467 169.8h2.0361v3.8976h-2.0361z" fill="url(#am)" fill-rule="evenodd" style="paint-order:normal"/>
  <path d="m154.16 142.57s-0.47593 0.10104-0.51673 0.10962l9.7612 1.8888c-8.6574 1.9279-16.37 4.0764-23.47 6.4729-8e-5 4e-4 -8e-3 0.0333-8e-3 0.0333 9.6903-0.56675 18.135-1.6524 31.163-1.4465 2.0241-0.53042 4.0652-1.0229 6.1206-1.4739l1.7988-4.498z" fill="#bdbeb5"/>
  <path d="m103.42 105.68c-6.2712-0.0608-12.27 0.0936-17.852 0.52635l36.891 27.047c-20.569 0.74656-40.695 1.6903-60.178 3.6778l-2.4271-1.0589-10.065 1.6735s0.30753 1.3466 0.85536 1.607c2.2407 1.0651 10.362 3.13 15.007 4.3864 0.88222 0.25809 9.5419 1.0863 14.336 1.1607 23.286 0.36124 70.224 1.1627 70.224 1.1627 38.422 0.55568 87.549 3.2663 134.99 10.705l-4.2161 0.91016c-19.029 1.2446-34.085 3.7885-51.194 6.743-9.9736 0.48346-25.45-0.25276-33.269 3.672-6.0024 3.0129-14.292 7.1462-14.292 7.1462l236.27-2.3136 17.427-6.7811c-0.37007-1.8745-5.5617-2.9152-7.0201-3.2864-13.94-2.8678-21.872-3.9995-29.826-4.9257-7.379-0.85925-20.298-1.733-30.351-2.5504-3.6413-1.4583-4.9763-2.4772-11.2-3.67-0.7555-0.0529-1.7128 0.0785-1.8321 0.55001l-0.36656 0.99277c-1.8705-0.49942-4.966-1.3012-4.966-1.3012s-2.2915 0.47689-3.3346 0.59813c0 0-23.041 2.1207-34.845 2.0356-6.7116-0.0484-20.546-1.3956-20.546-1.3956-21.785-3.497-43.746-6.645-66.332-8.5399 0 0-1.5413 0.76955-1.5306 0.7301-22.524-2.0926-45.123-3.0546-67.781-3.1376l-10.36-2.521c0-0.90091 69.481 0.34355 69.626 0.68116 0.25064 0.0471 0.80055 0.11743 0.80055 0.11743l-0.10569-0.90233 3.9949-0.2525 0.0215 0.0156c22.794-1.9514 47.27-0.68675 73.449 3.8364 0 0 6.6858-0.17582 10.02-0.42083 3.105-0.22819 6.1554-0.61524 9.2876-0.97671l-6e-3 -0.36797c-14.662-4.3471-24.507-5.6603-35.16-7.4829-0.51033-0.45088-2.0827-1.4291-2.8016-1.7032 0 0-0.54851 0.63959-0.88408 0.91247-0.33559 0.27289-0.28147 0.26152-1.4563 0.58132s-5.321 0.0988-8.5614-0.0764c-11.637-0.62917-36.394-2.9854-62.367-0.69486-29.503-10.523-60.162-19.378-91.682-26.988-2.176-0.0583-4.3082-0.10107-6.3986-0.12136z" fill="#fdfdfb"/>
  <path d="m17.701 202.05c19.267-14.864 30.881-20.756 43.978-28.387l10.34-0.77041 0.45391 1.0706-42.899 28.132z" fill="url(#aq)"/>
  <g transform="matrix(1 0 0 .98522 0 3.0591)">
   <path d="m5.9064 201.98 6.4228 5.0506h22.888l-5.7221-5.0506z" fill="#5f636a"/>
   <path d="m5.9056 201.98 6.424 5.0499h11.2l-6.1069-5.0499z" fill="#7c7c85" style="paint-order:normal"/>
   <path d="m5.9056 201.98 6.424 5.0499h3.1826l-6.1069-5.0499z" fill="#474747" style="paint-order:normal"/>
  </g>
  <path d="m50.37 168s-0.10002 0.0718-0.11744 0.0842l-0.03719 0.92582 3.0045 0.28577-0.01175 0.01c0.03892-9e-3 0.26424-0.0607 0.26424-0.0607l0.15854-1.1979z" fill="#d6d09f"/>
  <path d="m102.47 113.07 18.924-0.12063 45.465 16.888-7.7551 2.8951-24.974 0.0334z" fill="url(#ai)" stroke="#181a15" stroke-width=".50108"/>
  <path d="m85.366 106.09 1.6981-0.0867 44.259 28.137-9.2227-1.2167z" fill="none"/>
  <path d="m121.97 132.97 0.27403 0.2016c-20.569 0.74656-40.695 1.6903-60.178 3.6778l-2.4271-1.0589-10.065 1.6735s0.30753 1.3466 0.85536 1.607c0.95085 0.45199 3.0484 1.0956 5.4023 1.7694l6.0208-0.77707c49.588-6.1662 103.8-3.3369 150.17-1.0041-21.595-2.8652-25.631-3.0735-53.093-3.807-6.7136-0.17932-27.495-0.51282-27.495-0.51282l-0.68311-0.59699-8.3089-1.1607z" fill="#d8d7d2"/>
  <path d="m188.83 135.25c27.402-4.4093 65.476-2.1964 81.915-0.22868-27.234-1.4898-54.185-2.8665-81.915 0.22868z" fill="#bbbbba"/>
  <path d="m274.64 132.02s-0.63332 0.60989-0.96889 0.88276c-0.21786 0.17716-0.46291 0.42284-0.79516 0.52878l0.0536 0.32115c1.0413 0.67391 3.3154 1.9021 3.3154 1.9021l28.182 5.4258 2.8734 0.2525 4.4947-0.33771c-13.392-3.9153-24.157-5.5427-34.438-7.3018-0.0175-0.0166-2.7168-1.6735-2.7168-1.6735z" fill="#cdd2ca"/>
  <path d="m160.93 145.23c-23.032 5.1291-36.916 11.141-52.793 19.942h5.412l0.92386-1.2879c16.045-8.1308 37.696-17.039 53.147-17.856-1.5974-0.56557-7.2663-0.6065-6.6899-0.79759z" fill="#d5d6cc"/>
  <path d="m176.5 145.87-1.5083 0.84557c-15.086 4.1456-31.322 9.1442-43.572 16.72l1.1548 1.4249c14.576-7.8278 32.779-14.758 51.328-18.011z" fill="#adafaa"/>
  <path d="m224.81 145.19c24.476 1.7273 46.97 5.3419 68.18 10.18-22.457-4.4035-45.102-8.1034-68.18-10.18z" fill="#efefe3"/>
  <path d="m282.52 158.04 97.7 2.3574c-39.124 0.0937-99.779-1.4121-133.11 3.3711z" fill="#e8eadc"/>
  <path d="m274.64 132.01s-0.63723 0.61772-0.9728 0.89059c-0.23047 0.18742-0.42709 0.4173-0.81425 0.53592-0.0415 0.15163-0.0231 0.24569 0.0606 0.30339 1.0089 0.66511 2.1897 1.2716 3.3001 1.9029 0.35563-0.70272 0.8698-1.2995 1.3153-1.9123-0.83749-0.72447-1.872-1.2723-2.889-1.7205z" fill="#b2b7b0"/>
  <path d="m103.61 168.66-2.7652 2.4579c31.319-1.2245 63.814-2.3549 97.324-2.2374l1.3667-3.3428z" fill="#1f2324"/>
  <path d="m211.52 166.53-12.437 0.18986c-0.99438 0.32013-1.9321 0.67671-2.7677 1.0961-6.0024 3.0129-14.292 7.1462-14.292 7.1462l7.8861-0.0763c3e-3 -1e-3 0.0744-0.0391 0.0744-0.0391z" fill="#f7f6e6"/>
  <path d="m319.4 161.04c-4.4596 0.23401-8.577 1.506-11.914 3.9846l-0.0528 0.51087c27.502-0.085 55.369 0.16043 83.145 0.35873l-0.63676-3.5663z" fill="#d0d2cf"/>
  <path d="m397.3 157.58c-0.0597 0.1968-0.14141 0.45336-0.19182 0.62244l-3.9068 0.0822-1.8223 0.63222 3.396 6.5767c6.0952 0.0439 12.192 0.0866 18.291 0.12918l-1.5776-4.2553-1.376-0.36993-3.0378-1.3799 2.0317 0.13897c7.9194 1.1947 16.019 2.2829 22.492 4.3453l-9.2504-1.1216-1.6109 1.2605 0.10765 1.4367c4.9142 0.0326 9.8264 0.049 14.741 0.0763l-0.11352-0.61265c-0.76468-0.72373-1.1206-0.85788-2.0415-1.3212-6.9593-2.0319-22.625-4.882-36.131-6.24z" fill="#e4e5d7"/>
  <path d="m396.71 157.93-10.029 0.1194 3.8814 3.028 0.60287 4.3844c1.9988 0.0143 3.9999 0.0286 5.9992 0.0431l-0.7477-4.0262-3.1728-2.8362 7.7256 0.0333z" fill="#cbcdca"/>
  <path d="m287.26 156.55c9.0629-0.045 17.753 0.28279 26.616 0.43792 0 0-16.063-0.95148-20.586-0.85331-4.5227 0.0982-6.0297 0.41539-6.0297 0.41539z" fill="#f1f1e7"/>
  <path d="m110.46 106.11c29.377 8.723 54.369 14.314 72.745 20.503l-0.0215-0.0842c-23.572-7.7608-48.514-14.731-73.299-20.739 0 0 0.57815 0.31302 0.576 0.32007z" fill="#d7d9d7"/>
  <path d="m161.2 145.11c-6.9101 1.4706-15.043 3.6568-21.86 6.013 1.9703-0.16413 4.3898-0.31137 6.5102-0.46021 7.7666-2.5231 15.316-4.293 21.777-4.635 0 0-6.4745-0.90683-6.4276-0.91783z" fill="#a0a099"/>
  <path d="m347.81 156.49c-7.2024-2e-3 -14.382 6e-3 -21.531 0.0255l-7.3067 4.312c-22.781-0.0465-46.215-0.37145-69.528 0.0218-15.011 0.77607-29.516 2.0003-43.804 3.4994l5.9816 0.20748c12.217-1.1748 24.606-2.2798 37.875-3.0339l-4.498 4.3805h1.0041s4.2271-3.9774 4.586-4.4021l30.636 4e-3 -4.5175 4.3981h1.0041s4.219-3.9679 4.5841-4.3981l33.384 4e-3 -4.5136 4.3942h1.0041s4.2088-3.9583 4.5802-4.3942h2.8066l7.3067-4.3492c8.6489 0.01 16.841 0.038 25.579 0.0607l-8.8296 8.6828h1.0041s8.158-7.8927 8.8922-8.6808c12.202 0.0323 24.431 0.0703 36.733 0.1194l-8.7043 8.5614h1.0041s7.8365-7.5828 8.7669-8.5575c14.482 0.0582 28.86 0.11188 43.353 0.17812l-8.5203 8.3794h1.0041s7.3802-7.142 8.581-8.3735c12.353 0.0565 24.623 0.10539 36.892 0.15659l-8.3559 8.2169h1.0041s6.9992-6.7759 8.4166-8.213c7.608 0.0316 15.334 0.0716 22.883 0.0979l-8.2522 8.1151h1.0041s6.7683-6.5534 8.3128-8.1112c0.70803 2e-3 3.4441 7e-3 4.1515 0.01 0.37958 0 0.42772-0.60677 0.0392-0.60677-0.0169 0.0255-20.53-0.0946-30.68-0.15086-10.15-0.0563-22.437-0.12287-43.597-0.25087-21.16-0.12801-50.626-0.29513-79.736-0.30301z" fill="#1c262b"/>
  <path d="m104.69 165.52c-2.788 2.0998-5.4547 4.2458-8.0711 6.4766l3.7135-0.53757c2.6777-2.1895 5.4894-4.3767 8.352-6.5173z" fill="#d5d6cc"/>
  <path d="m34.599 207.05-5.255-5.0448c14.901-10.827 29.706-21.324 43.535-28.474l23.379-1.3741c0.58587-0.69238 1.2373-1.4197 2.5925-2.5224l26.968-1.051-13.554 7.9547 0.16254 0.39575 77.445-2.1775 20.63-7.7845c91.981-3.5495 188.39-0.74739 283.5-1.1127 0.60149-0.0276 1.134 0.68846-0.13555 1.4749-25.028 15.926-46.851 31.133-71.503 44.298l-387.86-0.30053z" fill="url(#aw)"/>
  <path d="m281.98 184.69s-41.881 0.0805-44.359 0.40908c-2.4786 0.32848-9.5376 1.2515-13.621 2.4545-3.2815 0.6342-7.4578 2.2457-11.55 4.0987h59.914c5.2465-2.6134 10.82-5.6587 10.82-5.6587 0.43572-0.25157 0.33581-1.3036-1.2038-1.3036zm-74.177 9.1878c-6.107 3.0496-11.08 6.013-11.006 6.058-0.24606 0.10402-0.45841 0.90429 0.34058 0.90429 16.156-0.29768 35.247 4e-3 48.468-0.89255 5.7391-0.38933 11.83-1.582 21.539-5.8192 0.1687-0.0737 0.37214-0.1719 0.54805-0.25054z" fill="url(#al)"/>
  <path d="m397.78 181.36c-9.1362 0.84551-16.68 5.6714-17.324 5.939-0.25774 0.15079-0.26451 0.9043 0.53448 0.9043 16.654-0.19011 25.429 0.16403 39.009-0.15716 5.7391-0.38933 10.041-1.2502 19.366-6.0109 0.64614-0.37521 0.94044-1.2542 0.0711-1.3446-0.32107 0.0291-27.132-0.11668-41.656 0.66935z" fill="#252828" stroke="#b6b8b3" stroke-linecap="round" stroke-width=".50108"/>
  <g transform="matrix(.55652 0 0 .55652 12.469 -71.668)" fill-rule="evenodd">
   <path d="m119.96 476.21a6.3422 6.3422 0 0 1 -6.3422 6.3422 6.3422 6.3422 0 0 1 -6.3422 -6.3422 6.3422 6.3422 0 0 1 6.3422 -6.3422 6.3422 6.3422 0 0 1 6.3422 6.3422z" fill="#a08b6b" style="paint-order:normal"/>
   <path d="m119.67 476.5a6.0533 6.0533 0 0 1 -6.0533 6.0533 6.0533 6.0533 0 0 1 -6.0533 -6.0533 6.0533 6.0533 0 0 1 6.0533 -6.0533 6.0533 6.0533 0 0 1 6.0533 6.0533z" fill="#c3bbad" style="paint-order:normal"/>
   <path d="m118.82 476.21a5.2026 5.2026 0 0 1 -5.2026 5.2026 5.2026 5.2026 0 0 1 -5.2026 -5.2026 5.2026 5.2026 0 0 1 5.2026 -5.2026 5.2026 5.2026 0 0 1 5.2026 5.2026z" fill="url(#k)" style="paint-order:normal"/>
   <path d="m118.2 475.58a4.5854 4.5854 0 0 1 -4.5854 4.5854 4.5854 4.5854 0 0 1 -4.5854 -4.5854 4.5854 4.5854 0 0 1 4.5854 -4.5854 4.5854 4.5854 0 0 1 4.5854 4.5854z" fill="#161818" style="paint-order:normal"/>
   <path d="m115.3 480.85a1.6891 0.6588 0 0 1 -1.6891 0.6588 1.6891 0.6588 0 0 1 -1.6891 -0.6588 1.6891 0.6588 0 0 1 1.6891 -0.65879 1.6891 0.6588 0 0 1 1.6891 0.65879z" fill="url(#ab)" style="paint-order:normal"/>
   <path d="m115.01 470.72a1.397 0.26817 0 0 1 -1.397 0.26817 1.397 0.26817 0 0 1 -1.397 -0.26817 1.397 0.26817 0 0 1 1.397 -0.26817 1.397 0.26817 0 0 1 1.397 0.26817z" fill="url(#ac)" style="paint-order:normal"/>
  </g>
  <g transform="matrix(.55652 0 0 .55652 38.623 -71.668)" fill-rule="evenodd">
   <path d="m119.96 476.21a6.3422 6.3422 0 0 1 -6.3422 6.3422 6.3422 6.3422 0 0 1 -6.3422 -6.3422 6.3422 6.3422 0 0 1 6.3422 -6.3422 6.3422 6.3422 0 0 1 6.3422 6.3422z" fill="#a08b6b" style="paint-order:normal"/>
   <path d="m119.67 476.5a6.0533 6.0533 0 0 1 -6.0533 6.0533 6.0533 6.0533 0 0 1 -6.0533 -6.0533 6.0533 6.0533 0 0 1 6.0533 -6.0533 6.0533 6.0533 0 0 1 6.0533 6.0533z" fill="#c3bbad" style="paint-order:normal"/>
   <path d="m118.82 476.21a5.2026 5.2026 0 0 1 -5.2026 5.2026 5.2026 5.2026 0 0 1 -5.2026 -5.2026 5.2026 5.2026 0 0 1 5.2026 -5.2026 5.2026 5.2026 0 0 1 5.2026 5.2026z" fill="url(#k)" style="paint-order:normal"/>
   <path d="m118.2 475.58a4.5854 4.5854 0 0 1 -4.5854 4.5854 4.5854 4.5854 0 0 1 -4.5854 -4.5854 4.5854 4.5854 0 0 1 4.5854 -4.5854 4.5854 4.5854 0 0 1 4.5854 4.5854z" fill="#161818" style="paint-order:normal"/>
   <path d="m115.3 480.85a1.6891 0.6588 0 0 1 -1.6891 0.6588 1.6891 0.6588 0 0 1 -1.6891 -0.6588 1.6891 0.6588 0 0 1 1.6891 -0.65879 1.6891 0.6588 0 0 1 1.6891 0.65879z" fill="url(#ab)" style="paint-order:normal"/>
   <path d="m115.01 470.72a1.397 0.26817 0 0 1 -1.397 0.26817 1.397 0.26817 0 0 1 -1.397 -0.26817 1.397 0.26817 0 0 1 1.397 -0.26817 1.397 0.26817 0 0 1 1.397 0.26817z" fill="url(#ac)" style="paint-order:normal"/>
  </g>
  <g transform="matrix(.55652 0 0 .55652 25.546 -71.668)" fill-rule="evenodd">
   <path d="m119.96 476.21a6.3422 6.3422 0 0 1 -6.3422 6.3422 6.3422 6.3422 0 0 1 -6.3422 -6.3422 6.3422 6.3422 0 0 1 6.3422 -6.3422 6.3422 6.3422 0 0 1 6.3422 6.3422z" fill="#a08b6b" style="paint-order:normal"/>
   <path d="m119.67 476.5a6.0533 6.0533 0 0 1 -6.0533 6.0533 6.0533 6.0533 0 0 1 -6.0533 -6.0533 6.0533 6.0533 0 0 1 6.0533 -6.0533 6.0533 6.0533 0 0 1 6.0533 6.0533z" fill="#c3bbad" style="paint-order:normal"/>
   <path d="m118.82 476.21a5.2026 5.2026 0 0 1 -5.2026 5.2026 5.2026 5.2026 0 0 1 -5.2026 -5.2026 5.2026 5.2026 0 0 1 5.2026 -5.2026 5.2026 5.2026 0 0 1 5.2026 5.2026z" fill="url(#k)" style="paint-order:normal"/>
   <path d="m118.2 475.58a4.5854 4.5854 0 0 1 -4.5854 4.5854 4.5854 4.5854 0 0 1 -4.5854 -4.5854 4.5854 4.5854 0 0 1 4.5854 -4.5854 4.5854 4.5854 0 0 1 4.5854 4.5854z" fill="#161818" style="paint-order:normal"/>
   <path d="m115.3 480.85a1.6891 0.6588 0 0 1 -1.6891 0.6588 1.6891 0.6588 0 0 1 -1.6891 -0.6588 1.6891 0.6588 0 0 1 1.6891 -0.65879 1.6891 0.6588 0 0 1 1.6891 0.65879z" fill="url(#ab)" style="paint-order:normal"/>
   <path d="m115.01 470.72a1.397 0.26817 0 0 1 -1.397 0.26817 1.397 0.26817 0 0 1 -1.397 -0.26817 1.397 0.26817 0 0 1 1.397 -0.26817 1.397 0.26817 0 0 1 1.397 0.26817z" fill="url(#ac)" style="paint-order:normal"/>
  </g>
  <g transform="matrix(.55652 0 0 .55652 140.81 -77.513)" fill-rule="evenodd">
   <path d="m119.96 476.21a6.3422 6.3422 0 0 1 -6.3422 6.3422 6.3422 6.3422 0 0 1 -6.3422 -6.3422 6.3422 6.3422 0 0 1 6.3422 -6.3422 6.3422 6.3422 0 0 1 6.3422 6.3422z" fill="#a08b6b" style="paint-order:normal"/>
   <path d="m119.67 476.5a6.0533 6.0533 0 0 1 -6.0533 6.0533 6.0533 6.0533 0 0 1 -6.0533 -6.0533 6.0533 6.0533 0 0 1 6.0533 -6.0533 6.0533 6.0533 0 0 1 6.0533 6.0533z" fill="#c3bbad" style="paint-order:normal"/>
   <path d="m118.82 476.21a5.2026 5.2026 0 0 1 -5.2026 5.2026 5.2026 5.2026 0 0 1 -5.2026 -5.2026 5.2026 5.2026 0 0 1 5.2026 -5.2026 5.2026 5.2026 0 0 1 5.2026 5.2026z" fill="url(#k)" style="paint-order:normal"/>
   <path d="m118.2 475.58a4.5854 4.5854 0 0 1 -4.5854 4.5854 4.5854 4.5854 0 0 1 -4.5854 -4.5854 4.5854 4.5854 0 0 1 4.5854 -4.5854 4.5854 4.5854 0 0 1 4.5854 4.5854z" fill="#161818" style="paint-order:normal"/>
   <path d="m115.3 480.85a1.6891 0.6588 0 0 1 -1.6891 0.6588 1.6891 0.6588 0 0 1 -1.6891 -0.6588 1.6891 0.6588 0 0 1 1.6891 -0.65879 1.6891 0.6588 0 0 1 1.6891 0.65879z" fill="url(#ab)" style="paint-order:normal"/>
   <path d="m115.01 470.72a1.397 0.26817 0 0 1 -1.397 0.26817 1.397 0.26817 0 0 1 -1.397 -0.26817 1.397 0.26817 0 0 1 1.397 -0.26817 1.397 0.26817 0 0 1 1.397 0.26817z" fill="url(#ac)" style="paint-order:normal"/>
  </g>
  <g transform="matrix(.55652 0 0 .55652 127.73 -77.513)" fill-rule="evenodd">
   <path d="m119.96 476.21a6.3422 6.3422 0 0 1 -6.3422 6.3422 6.3422 6.3422 0 0 1 -6.3422 -6.3422 6.3422 6.3422 0 0 1 6.3422 -6.3422 6.3422 6.3422 0 0 1 6.3422 6.3422z" fill="#a08b6b" style="paint-order:normal"/>
   <path d="m119.67 476.5a6.0533 6.0533 0 0 1 -6.0533 6.0533 6.0533 6.0533 0 0 1 -6.0533 -6.0533 6.0533 6.0533 0 0 1 6.0533 -6.0533 6.0533 6.0533 0 0 1 6.0533 6.0533z" fill="#c3bbad" style="paint-order:normal"/>
   <path d="m118.82 476.21a5.2026 5.2026 0 0 1 -5.2026 5.2026 5.2026 5.2026 0 0 1 -5.2026 -5.2026 5.2026 5.2026 0 0 1 5.2026 -5.2026 5.2026 5.2026 0 0 1 5.2026 5.2026z" fill="url(#k)" style="paint-order:normal"/>
   <path d="m118.2 475.58a4.5854 4.5854 0 0 1 -4.5854 4.5854 4.5854 4.5854 0 0 1 -4.5854 -4.5854 4.5854 4.5854 0 0 1 4.5854 -4.5854 4.5854 4.5854 0 0 1 4.5854 4.5854z" fill="#161818" style="paint-order:normal"/>
   <path d="m115.3 480.85a1.6891 0.6588 0 0 1 -1.6891 0.6588 1.6891 0.6588 0 0 1 -1.6891 -0.6588 1.6891 0.6588 0 0 1 1.6891 -0.65879 1.6891 0.6588 0 0 1 1.6891 0.65879z" fill="url(#ab)" style="paint-order:normal"/>
   <path d="m115.01 470.72a1.397 0.26817 0 0 1 -1.397 0.26817 1.397 0.26817 0 0 1 -1.397 -0.26817 1.397 0.26817 0 0 1 1.397 -0.26817 1.397 0.26817 0 0 1 1.397 0.26817z" fill="url(#ac)" style="paint-order:normal"/>
  </g>
  <g transform="matrix(.55652 0 0 .55652 241.02 -77.513)" fill-rule="evenodd">
   <path d="m119.96 476.21a6.3422 6.3422 0 0 1 -6.3422 6.3422 6.3422 6.3422 0 0 1 -6.3422 -6.3422 6.3422 6.3422 0 0 1 6.3422 -6.3422 6.3422 6.3422 0 0 1 6.3422 6.3422z" fill="#a08b6b" style="paint-order:normal"/>
   <path d="m119.67 476.5a6.0533 6.0533 0 0 1 -6.0533 6.0533 6.0533 6.0533 0 0 1 -6.0533 -6.0533 6.0533 6.0533 0 0 1 6.0533 -6.0533 6.0533 6.0533 0 0 1 6.0533 6.0533z" fill="#b0a593" style="paint-order:normal"/>
   <path d="m118.82 476.21a5.2026 5.2026 0 0 1 -5.2026 5.2026 5.2026 5.2026 0 0 1 -5.2026 -5.2026 5.2026 5.2026 0 0 1 5.2026 -5.2026 5.2026 5.2026 0 0 1 5.2026 5.2026z" fill="url(#k)" style="paint-order:normal"/>
   <path d="m118.2 475.58a4.5854 4.5854 0 0 1 -4.5854 4.5854 4.5854 4.5854 0 0 1 -4.5854 -4.5854 4.5854 4.5854 0 0 1 4.5854 -4.5854 4.5854 4.5854 0 0 1 4.5854 4.5854z" fill="#161818" style="paint-order:normal"/>
   <path d="m115.3 480.85a1.6891 0.6588 0 0 1 -1.6891 0.6588 1.6891 0.6588 0 0 1 -1.6891 -0.6588 1.6891 0.6588 0 0 1 1.6891 -0.65879 1.6891 0.6588 0 0 1 1.6891 0.65879z" fill="url(#ab)" style="paint-order:normal"/>
   <path d="m115.01 470.72a1.397 0.26817 0 0 1 -1.397 0.26817 1.397 0.26817 0 0 1 -1.397 -0.26817 1.397 0.26817 0 0 1 1.397 -0.26817 1.397 0.26817 0 0 1 1.397 0.26817z" fill="url(#ad)" style="paint-order:normal"/>
  </g>
  <g transform="matrix(.55652 0 0 .55652 227.95 -77.513)" fill-rule="evenodd">
   <path d="m119.96 476.21a6.3422 6.3422 0 0 1 -6.3422 6.3422 6.3422 6.3422 0 0 1 -6.3422 -6.3422 6.3422 6.3422 0 0 1 6.3422 -6.3422 6.3422 6.3422 0 0 1 6.3422 6.3422z" fill="#a08b6b" style="paint-order:normal"/>
   <path d="m119.67 476.5a6.0533 6.0533 0 0 1 -6.0533 6.0533 6.0533 6.0533 0 0 1 -6.0533 -6.0533 6.0533 6.0533 0 0 1 6.0533 -6.0533 6.0533 6.0533 0 0 1 6.0533 6.0533z" fill="#b0a593" style="paint-order:normal"/>
   <path d="m118.82 476.21a5.2026 5.2026 0 0 1 -5.2026 5.2026 5.2026 5.2026 0 0 1 -5.2026 -5.2026 5.2026 5.2026 0 0 1 5.2026 -5.2026 5.2026 5.2026 0 0 1 5.2026 5.2026z" fill="url(#k)" style="paint-order:normal"/>
   <path d="m118.2 475.58a4.5854 4.5854 0 0 1 -4.5854 4.5854 4.5854 4.5854 0 0 1 -4.5854 -4.5854 4.5854 4.5854 0 0 1 4.5854 -4.5854 4.5854 4.5854 0 0 1 4.5854 4.5854z" fill="#161818" style="paint-order:normal"/>
   <path d="m115.3 480.85a1.6891 0.6588 0 0 1 -1.6891 0.6588 1.6891 0.6588 0 0 1 -1.6891 -0.6588 1.6891 0.6588 0 0 1 1.6891 -0.65879 1.6891 0.6588 0 0 1 1.6891 0.65879z" fill="url(#ab)" style="paint-order:normal"/>
   <path d="m115.01 470.72a1.397 0.26817 0 0 1 -1.397 0.26817 1.397 0.26817 0 0 1 -1.397 -0.26817 1.397 0.26817 0 0 1 1.397 -0.26817 1.397 0.26817 0 0 1 1.397 0.26817z" fill="url(#ad)" style="paint-order:normal"/>
  </g>
  <g transform="matrix(.55652 0 0 .55652 290.89 -77.513)" fill-rule="evenodd">
   <path d="m119.96 476.21a6.3422 6.3422 0 0 1 -6.3422 6.3422 6.3422 6.3422 0 0 1 -6.3422 -6.3422 6.3422 6.3422 0 0 1 6.3422 -6.3422 6.3422 6.3422 0 0 1 6.3422 6.3422z" fill="#a08b6b" style="paint-order:normal"/>
   <path d="m119.67 476.5a6.0533 6.0533 0 0 1 -6.0533 6.0533 6.0533 6.0533 0 0 1 -6.0533 -6.0533 6.0533 6.0533 0 0 1 6.0533 -6.0533 6.0533 6.0533 0 0 1 6.0533 6.0533z" fill="#b0a593" style="paint-order:normal"/>
   <path d="m118.82 476.21a5.2026 5.2026 0 0 1 -5.2026 5.2026 5.2026 5.2026 0 0 1 -5.2026 -5.2026 5.2026 5.2026 0 0 1 5.2026 -5.2026 5.2026 5.2026 0 0 1 5.2026 5.2026z" fill="url(#k)" style="paint-order:normal"/>
   <path d="m118.2 475.58a4.5854 4.5854 0 0 1 -4.5854 4.5854 4.5854 4.5854 0 0 1 -4.5854 -4.5854 4.5854 4.5854 0 0 1 4.5854 -4.5854 4.5854 4.5854 0 0 1 4.5854 4.5854z" fill="#161818" style="paint-order:normal"/>
   <path d="m115.3 480.85a1.6891 0.6588 0 0 1 -1.6891 0.6588 1.6891 0.6588 0 0 1 -1.6891 -0.6588 1.6891 0.6588 0 0 1 1.6891 -0.65879 1.6891 0.6588 0 0 1 1.6891 0.65879z" fill="url(#ab)" style="paint-order:normal"/>
   <path d="m115.01 470.72a1.397 0.26817 0 0 1 -1.397 0.26817 1.397 0.26817 0 0 1 -1.397 -0.26817 1.397 0.26817 0 0 1 1.397 -0.26817 1.397 0.26817 0 0 1 1.397 0.26817z" fill="url(#ad)" style="paint-order:normal"/>
  </g>
  <g transform="matrix(.55652 0 0 .55652 268.03 -77.513)" fill-rule="evenodd">
   <path d="m119.96 476.21a6.3422 6.3422 0 0 1 -6.3422 6.3422 6.3422 6.3422 0 0 1 -6.3422 -6.3422 6.3422 6.3422 0 0 1 6.3422 -6.3422 6.3422 6.3422 0 0 1 6.3422 6.3422z" fill="#a08b6b" style="paint-order:normal"/>
   <path d="m119.67 476.5a6.0533 6.0533 0 0 1 -6.0533 6.0533 6.0533 6.0533 0 0 1 -6.0533 -6.0533 6.0533 6.0533 0 0 1 6.0533 -6.0533 6.0533 6.0533 0 0 1 6.0533 6.0533z" fill="#b0a593" style="paint-order:normal"/>
   <path d="m118.82 476.21a5.2026 5.2026 0 0 1 -5.2026 5.2026 5.2026 5.2026 0 0 1 -5.2026 -5.2026 5.2026 5.2026 0 0 1 5.2026 -5.2026 5.2026 5.2026 0 0 1 5.2026 5.2026z" fill="url(#k)" style="paint-order:normal"/>
   <path d="m118.2 475.58a4.5854 4.5854 0 0 1 -4.5854 4.5854 4.5854 4.5854 0 0 1 -4.5854 -4.5854 4.5854 4.5854 0 0 1 4.5854 -4.5854 4.5854 4.5854 0 0 1 4.5854 4.5854z" fill="#161818" style="paint-order:normal"/>
   <path d="m115.3 480.85a1.6891 0.6588 0 0 1 -1.6891 0.6588 1.6891 0.6588 0 0 1 -1.6891 -0.6588 1.6891 0.6588 0 0 1 1.6891 -0.65879 1.6891 0.6588 0 0 1 1.6891 0.65879z" fill="url(#ab)" style="paint-order:normal"/>
   <path d="m115.01 470.72a1.397 0.26817 0 0 1 -1.397 0.26817 1.397 0.26817 0 0 1 -1.397 -0.26817 1.397 0.26817 0 0 1 1.397 -0.26817 1.397 0.26817 0 0 1 1.397 0.26817z" fill="url(#ad)" style="paint-order:normal"/>
  </g>
  <path d="m439.43 180.69c-0.32107 0.0291-27.132-0.11668-41.656 0.66935l-2e-5 3e-5c-9.1362 0.84551-16.68 5.6714-17.324 5.939" fill="none" stroke="#999f9a" stroke-linecap="round" stroke-width=".50108"/>
  <path d="m383.81 165.42-0.75489 6.5e-4 0.30472 0.36733 110.41 0.74789c0.0882 0.13114 9e-3 0.26229-0.14094 0.39343-24.06 15.202-47.254 31.237-71.629 44.459l-12.09-0.045c5.7566-1.3522 13.417-3.9156 20.429-6.0669 1.1864-0.54986 2.2045-1.7508 3.2275-2.5866l-8.7956 2.5212 0.54544-0.91616c1.7057-1.2954 3.3812-2.918 3.8579-4.0262l1.1274-2.3097c-0.42364-0.36941-4.4891 0.29928-0.96768-1.3523l-0.52577-0.13919-56.258 12.518-0.16421 2.6107 49.983 0.0392c24.653-13.165 46.476-28.373 71.504-44.299 1.2696-0.78647 0.73655-1.5014 0.13506-1.4739-33.468 0.12855-76.654-0.20146-110.19-0.44255z" fill="#6f6e73"/>
  <path d="m446.51 193.87c-21.65 5.5029-43.496 11.259-65.452 15.843l-7.7657 1.7517 1.6349 0.70067 7.5322-0.58389c20.699-4.2119 39.316-9.114 59.55-15.032z" fill="#5b5d63"/>
  <path d="m65.479 180.25c121.31-1.4372 252.99-4.6261 374.3-7.5672-121.33 2.436-253.04 4.8305-374.3 7.5672z" fill="#616568"/>
  <path d="m34.579 207.96-0.04111 1.7694h333.97v-1.7694z" fill="url(#ah)" fill-rule="evenodd" style="paint-order:normal"/>
  <path d="m34.538 209.73h333.97m0-1.7694h-333.92" fill="none" stroke="#b4b0af" stroke-width=".25054" style="paint-order:normal"/>
  <path d="m448.15 191.74c-25.767 5.7603-51.384 12.203-77.141 15.751-6.6737 0.94727-13.371 1.7314-20.059 2.5759l-0.0685-0.0645v0.0548l-18.04 1.5922h40.192l10.261-4.5634c21.748-4.9854 43.955-9.5111 64.854-15.346z" fill="#3d4045"/>
  <path d="m372.81 211.64 5.9183-1.0673c24.456-4.4104 48.23-10.685 71.958-17.544-11.898 4.3415-48.151 14.441-72.773 18.775l-5.5309 0.16219z" fill="#e6ebe8"/>
  <path d="m436.46 202.39c-8.0355 2.8941-18.245 5.882-29.825 9.2974l-5.3355 0.548 4.0478-1.0445c10.874-2.8059 20.664-5.6371 31.113-8.8009z" fill="#e6ebe8"/>
  <path d="m34.501 211.32h388.36l-3.1326 2.2909h-385.23z" fill="#2d2d2d" fill-rule="evenodd" style="paint-order:normal"/>
  <path d="m318.88 160.85c-0.26107-0.10594-68.538-0.0957-69.428 0.11795-15.011 0.77606-29.515 2.0006-43.803 3.4997" fill="none" stroke="#9e9e9e" stroke-linecap="round" stroke-width=".25054"/>
  <path d="m69.521 170.17 12.116-0.24329c32.796-1.5416 68.678-2.5855 128.73-2.8379l23.522-0.73834c-48.842-4.0098-107.95-5.7416-147.86 1.0383l-11.255 0.46473s-1.0029 0.27793-1.4037 0.43503c-1.3841 0.54249-3.848 1.8815-3.848 1.8815z" fill="url(#ao)"/>
  <path d="m345.91 152.47 22.045 3.3302-12.74-2.164 0.12995-0.57967s-4.7675-1.3739-4.9769-1.339c-0.4861 0.12711-4.6248 0.80788-4.4586 0.75249z" fill="#dfe0da"/>
  <path d="m156.61 162.83c-25.871-0.0867-50.782 1.1325-70.584 4.5645l-0.13897 6e-3 -5.5469 2.5563 0.5864-6e-3c31.409-8.857 121.83-6.0574 132.59-4.5524l-6.3516-0.91603c-16.494-1.2453-33.835-1.596-50.554-1.652z" fill="#acafa8"/>
  <path d="m207.8 193.88c-1.0597 0.5292-2.0178 1.0371-2.9888 1.5463l59.795-0.23879c0.82684-0.33715 1.6503-0.67099 2.5348-1.057 0.1687-0.0737 0.37214-0.1719 0.54805-0.25054z" fill="#181b1b"/>
  <path d="m281.98 184.69s-41.881 0.0805-44.359 0.40908c-2.4786 0.32848-9.5376 1.2515-13.621 2.4545-3.2815 0.6342-7.4578 2.2457-11.55 4.0987h1.8242c6.3674-2.9765 13.339-4.6286 22.557-5.3052 15.231-1.118 33.933 0.0268 46.564-0.68816 0.065-0.40111-0.28341-0.96888-1.4152-0.96888z" fill="#131416"/>
  <path d="m212.69 191.65h59.672c5.2465-2.6134 10.833-5.908 10.833-5.908m-86.448 15.096c16.156-0.29768 35.635 4e-3 48.856-0.89255 5.7391-0.38933 12.237-1.6082 21.945-5.8454" fill="none" stroke="#f9fbee" stroke-linecap="round" stroke-width=".50108"/>
  <path d="m438.85 180.97c-0.31689 0.0273-26.944-0.0121-41.279 0.72605-6.7832 0.59731-14.154 4.3982-16.928 5.8126 0 0 12.656-3.7597 13.527-3.9045 9.529-1.5841 26.358-1.5234 43.158-0.87696 0.37066-0.17561 1.2769-0.60131 1.6647-0.7897 0.78209-0.43755 1.167-1.0852-0.14359-0.96745z" fill="#161818"/>
  <path d="m176.38 145.88-1.3944 0.83865c-3.509 0.96424-7.0812 1.9811-10.65 3.0593 2.1729-0.0504 4.4422-0.0616 6.6041-0.0646 4.2735-1.1269 8.5964-2.0904 12.994-2.8461z" fill="#82837f"/>
  <path d="m52.617 138.04-2.7682 0.17586c-0.07283 0.0147 0.15046 0.45009 0.22361 0.59143 0.10453 0.15886 0.22366 0.29032 0.35819 0.35428 2.2407 1.0651 10.362 3.13 15.007 4.3864 0.88222 0.25809 9.5419 1.0863 14.336 1.1607 23.286 0.36124 70.223 1.1627 70.223 1.1627 38.422 0.55568 87.549 3.2663 134.99 10.705l-2.6055 0.54248 4.6098-0.71473c-17.675-2.8568-35.961-5.1015-54.764-7.0445-0.15396-0.0159-26.262-2.1343-55.654-3.6534-17.688-0.91414-36.565-1.6112-51.691-1.5023-18.14 0.13062-48.094 0.15087-52.3-1.0256z" fill="#454847"/>
  <path d="m122.25 133.17c-20.569 0.74656-40.695 1.6903-60.178 3.6778l-2.4271-1.0589-9.9169 1.6658" fill="none" stroke="#f0f1e9" stroke-linecap="round" stroke-width=".26458"/>
  <path d="m86.87 106.12c-0.46483 0.0317-0.93311 0.066-1.3936 0.10174l36.809 27.001c-4e-3 0.0263 5.5772 0.79339 8.6181 1.0657-14.785-9.2052-29.173-19.091-44.033-28.169z" fill="#989a95" stroke="#8a8a8a" stroke-width=".10022"/>
 </g>
</svg>
